<svg xmlns="http://www.w3.org/2000/svg" viewBox="0 0 93.04 30.36" width="175"><defs><style>.cls-1{fill:#fcc397;}.cls-1,.cls-10,.cls-2,.cls-3,.cls-4,.cls-5,.cls-6,.cls-7,.cls-8{fill-rule:evenodd;}.cls-2{fill:#fc9f95;}.cls-3{fill:#f77c88;}.cls-4{fill:#f25192;}.cls-5{fill:#d34ca3;}.cls-6{fill:#9a50a5;}.cls-7{fill:#59569e;}.cls-8{fill:#39477f;}.cls-10,.cls-9{fill:#fff;}</style></defs><g id="Layer_2" data-name="Layer 2"><g id="Layer_1-2" data-name="Layer 1"><g id="logo-ratio-_-clearance" data-name="logo-ratio-&amp;-clearance"><g id="realmLogo"><g id="Page-1-Copy-15"><g id="Logo"><path id="Melon" class="cls-1" d="M21.69,1.46A15.2,15.2,0,0,0,4.7,4.2C1.8,7,26.82,3.9,21.69,1.46Z"/><path id="Peach" class="cls-2" d="M27,5.7S25.8,7.4,22,7.88c-7.62,1-20.69,1.06-20.67,1A15.25,15.25,0,0,1,4.7,4.2a10.83,10.83,0,0,0,5.12.33C12.62,4,15.1,2.4,17.87,1.74a12.55,12.55,0,0,1,3.82-.28A15.29,15.29,0,0,1,27,5.7Z"/><path id="Sexy-Salmon" class="cls-3" d="M30.17,12.8c0,.06-17.17,1.68-25.54,1.21a6.22,6.22,0,0,1-4.32-1.9A14.72,14.72,0,0,1,1.36,8.9a16.57,16.57,0,0,1,8-2.06c3.46,0,6.85,1.19,10.32,1.1A14.78,14.78,0,0,0,27,5.7,15,15,0,0,1,30.17,12.8Z"/><path id="Flamingo" class="cls-4" d="M30.36,15.18v.25a46.85,46.85,0,0,1-10.92,1.13A192.46,192.46,0,0,1,0,15.05a15.75,15.75,0,0,1,.31-2.94,11.19,11.19,0,0,0,7,1.63,19.83,19.83,0,0,0,5.51-1.67,34.14,34.14,0,0,1,5.41-2,14.08,14.08,0,0,1,12,2.73A14.42,14.42,0,0,1,30.36,15.18Z"/><path id="Mulberry" class="cls-5" d="M13.14,20.11C8.59,21,.77,20,.75,19.92A15.18,15.18,0,0,1,0,15.18v-.13a12.31,12.31,0,0,1,2.29-1.42A12,12,0,0,1,8.61,12.5a21.19,21.19,0,0,1,6.13,1.86,50.92,50.92,0,0,0,5,2C20,16.43,18.16,19.18,13.14,20.11Z"/><path id="Grape-Jelly" class="cls-6" d="M29.81,19.23c-.32.54-3.34,2.35-7.44,2.66-5.43.41-11.84-1.23-9.71-2.06,3.34-1.32,6.25-3.68,9.71-4.67a13.37,13.37,0,0,1,8,.27A14.84,14.84,0,0,1,29.81,19.23Z"/><path id="Indigo" class="cls-7" d="M28.34,22.75C25.72,27.3,6.71,28.44,3.93,25.38A15.42,15.42,0,0,1,.75,19.92a12.25,12.25,0,0,1,7.7-1.54c3.4.46,6.44,2.36,9.8,3.1A14.8,14.8,0,0,0,26.43,21a15.16,15.16,0,0,0,3.38-1.72A15,15,0,0,1,28.34,22.75Z"/><path id="East-Bay" class="cls-8" d="M28.36,22.71A15.18,15.18,0,0,1,3.93,25.37c.46.18,1,.33,1.45.47a15,15,0,0,0,8.11-.07c1.69-.5,3.27-1.29,4.92-1.88a22.43,22.43,0,0,1,10-1.18Z"/></g></g></g></g><path class="cls-9" d="M37.07,23.2v1.92a1.23,1.23,0,0,1,1-.51,1.43,1.43,0,0,1,1.39,1.6c0,.89-.46,1.6-1.4,1.6a1.25,1.25,0,0,1-1-.48v.39h-.51V23.2Zm1,4.18c.4,0,.93-.25.93-1.22A1,1,0,0,0,38,25.07c-.41,0-1,.26-1,1.15C37.06,26.74,37.29,27.38,38,27.38Z"/><path class="cls-9" d="M42.62,24.7l-1.27,3.57c-.24.68-.41.94-.94.94a1.53,1.53,0,0,1-.45-.07v-.46a.9.9,0,0,0,.34.05c.3,0,.41-.12.58-.62l.13-.38-1-3h.54l.76,2.4.8-2.4Z"/><path class="cls-9" d="M48.92,27.72c0-.13.08-3.79.08-3.79l-1.43,3.79h-.46L45.71,24s.06,3.59.06,3.73h-.59V23.2H46l1.38,3.7,1.4-3.7h.78v4.52Z"/><path class="cls-9" d="M51.88,24.61a1.43,1.43,0,0,1,1.43,1.57,1.46,1.46,0,0,1-1.48,1.63,1.44,1.44,0,0,1-1.48-1.6A1.49,1.49,0,0,1,51.88,24.61Zm-.06,2.79c.62,0,.94-.48.94-1.26,0-.52-.21-1.12-.89-1.12-.95,0-1,1-1,1.22C50.91,26.6,51,27.4,51.82,27.4Z"/><path class="cls-9" d="M56.13,27.72v-2a.62.62,0,0,0-.69-.65.79.79,0,0,0-.8.84v1.79h-.51v-3h.51v.44a1.08,1.08,0,0,1,1-.53,1.09,1.09,0,0,1,.86.41,1.3,1.3,0,0,1,.18.79v1.91Z"/><path class="cls-9" d="M60.39,27.77A1.25,1.25,0,0,1,59,29.18a1.24,1.24,0,0,1-1.37-1.12h.57c0,.47.35.7.83.7.64,0,.84-.33.84-.9v-.59a1.16,1.16,0,0,1-1,.54,1.42,1.42,0,0,1-1.39-1.59,1.43,1.43,0,0,1,1.4-1.61,1.27,1.27,0,0,1,1,.5V24.7h.53Zm-1.45-2.7c-.52,0-.94.39-.94,1.14s.3,1.14,1,1.14.93-.53.93-1.18S59.49,25.07,58.94,25.07Z"/><path class="cls-9" d="M62.75,24.61a1.43,1.43,0,0,1,1.43,1.57,1.46,1.46,0,0,1-1.48,1.63,1.44,1.44,0,0,1-1.48-1.6A1.49,1.49,0,0,1,62.75,24.61Zm0,2.79c.61,0,.93-.48.93-1.26,0-.52-.21-1.12-.89-1.12-1,0-1,1-1,1.22C61.78,26.6,61.89,27.4,62.7,27.4Z"/><path class="cls-9" d="M66.88,23.2c1.09,0,1.92.76,1.92,2.26,0,1.13-.46,2.26-2.09,2.26H65.09V23.2Zm-1.17,4h1.07c.94,0,1.41-.66,1.41-1.73s-.42-1.73-1.44-1.73h-1Z"/><path class="cls-9" d="M69.91,23.2h2.17a1.2,1.2,0,0,1,1.29,1.16,1,1,0,0,1-.69,1,1.07,1.07,0,0,1,.83,1.13,1.26,1.26,0,0,1-1.42,1.25H69.91Zm1.9,1.9c.41,0,.93-.08.93-.71,0-.37-.21-.66-.77-.66H70.48V25.1Zm.13,2.08c.44,0,1-.07,1-.76s-.39-.81-.93-.81H70.48v1.57Z"/><path class="cls-10" d="M69.8,1.15h3.71V18.59H69.8ZM64.88,17.08l.78,1.51h2V11.34c0-3.85-1.6-6.23-5.53-6.23A9.27,9.27,0,0,0,57,6.81L58.1,10a5.29,5.29,0,0,1,3.5-1.52c1.26,0,2.45.52,2.45,1.9-5.84,0-7.28,2.74-7.28,4.82A4.07,4.07,0,0,0,61.09,19,4.56,4.56,0,0,0,64.88,17.08ZM54.4,15a6,6,0,0,1-2.83.75c-1.73,0-3.25-.68-3.42-2.44H56c.66-5-1.86-8.06-5.56-8.06S44.56,8.43,44.56,12c0,3.75,1.89,6.88,6.59,6.88a9.76,9.76,0,0,0,4.29-1Zm24.84,3.62H75.59V5.64h2l.72,1.79a4,4,0,0,1,3.57-2.2,3.92,3.92,0,0,1,3.48,2,3.52,3.52,0,0,1,3.51-2c3.6,0,4.17,3.34,4.17,5v8.34H89.39V11.39c0-1.25-.19-2.58-1.38-2.58-1,0-1.88,1-1.88,2.63v7.14H82.47s0-7.28,0-7.3c0-.8-.1-2.49-1.31-2.49s-1.91,1.41-1.91,2.6Zm-42.78,0h3.66V11.39c0-1.19.29-2.66,1.5-2.66a2.18,2.18,0,0,1,1.48.52s1.33-3,1.32-3h0a3.36,3.36,0,0,0-2.3-.93,3.1,3.1,0,0,0-2.94,2.06l-.72-1.7h-2ZM48.2,10.49h4.3c-.1-1.74-1.13-2.36-2.13-2.36A2.32,2.32,0,0,0,48.2,10.49Zm12.19,4.2c0,.88,1.41,1.72,2.59,1.09s1.07-1.46,1.06-2.67v-.29C61.86,12.82,60.39,13.61,60.39,14.69Z"/></g></g></svg>
